<svg width="16" height="16" viewBox="0 0 16 16" fill="none" xmlns="http://www.w3.org/2000/svg">
<path fill-rule="evenodd" clip-rule="evenodd" d="M9.07474 4.16531C9.24511 4.15525 9.41989 4.16521 9.59656 4.19733C10.6268 4.38464 11.3851 5.27558 11.4022 6.3148C11.4023 6.31916 11.4024 6.32351 11.4026 6.32785C11.4022 6.33547 11.4021 6.34314 11.4021 6.35085V6.79281H12.3741V6.35085C12.3741 6.34381 12.3739 6.3368 12.3736 6.32983C12.3741 6.31956 12.3743 6.30922 12.3741 6.2988C12.3493 4.7922 11.2533 3.5106 9.77044 3.24099C9.14809 3.12784 8.53865 3.20586 8 3.42948C7.46136 3.20587 6.85192 3.12785 6.22958 3.24101C4.72964 3.51372 3.62596 4.82195 3.62596 6.35085V6.79281H4.59797V6.35085C4.59797 5.29607 5.3614 4.38681 6.40346 4.19734C6.58013 4.16522 6.7549 4.15526 6.92525 4.16532C6.39118 4.72256 6.05599 5.47904 6.05599 6.32695C6.05599 6.32696 6.05599 6.32696 6.05599 6.32697V7.52204C6.05599 8.5957 6.92636 9.46607 8.00001 9.46607C9.07367 9.46607 9.94404 8.5957 9.94404 7.52204V6.32697C9.94404 5.47904 9.60883 4.72255 9.07474 4.16531ZM8 4.52589C7.41761 4.91215 7.028 5.56834 7.028 6.32695C7.028 6.32696 7.028 6.32696 7.028 6.32697V7.52204C7.028 8.05887 7.46318 8.49406 8.00001 8.49406C8.53684 8.49406 8.97202 8.05887 8.97202 7.52204V6.32697C8.97202 5.56834 8.5824 4.91215 8 4.52589ZM3.45322 7.52182C3.10143 7.52182 2.88414 7.90559 3.06513 8.20725C3.27114 8.55059 3.3575 8.95253 3.31072 9.35019L3.02459 11.7823C2.95661 12.3602 3.4081 12.8679 3.98994 12.8679H4.23383C4.81568 12.8679 5.26717 12.3602 5.19919 11.7823L4.91306 9.35019C4.86628 8.95253 4.95264 8.55059 5.15865 8.20725C5.33964 7.90559 5.12235 7.52182 4.77056 7.52182H3.45322ZM11.2293 7.52182C10.8775 7.52182 10.6602 7.90559 10.8412 8.20725C11.0472 8.55059 11.1336 8.95253 11.0868 9.35019L10.8007 11.7823C10.7327 12.3602 11.1842 12.8679 11.766 12.8679H12.0099C12.5918 12.8679 13.0433 12.3602 12.9753 11.7823L12.6892 9.35019C12.6424 8.95253 12.7287 8.55059 12.9347 8.20725C13.1157 7.90559 12.8984 7.52182 12.5467 7.52182H11.2293Z" fill="white"/>
</svg>
