<svg width="70" height="43" viewBox="0 0 70 43" fill="none" xmlns="http://www.w3.org/2000/svg">
<path d="M45.25 12C45.25 17.52 40.77 22 35.25 22C29.73 22 25.25 17.52 25.25 12C25.25 6.48 29.73 2 35.25 2C40.77 2 45.25 6.48 45.25 12Z" stroke="#868686" stroke-width="1.5" stroke-linecap="round" stroke-linejoin="round"/>
<path d="M38.96 15.1798L35.86 13.3298C35.32 13.0098 34.88 12.2398 34.88 11.6098V7.50977" stroke="#868686" stroke-width="1.5" stroke-linecap="round" stroke-linejoin="round"/>
<path d="M15.8068 39V30.2727H16.8636V34.1591H21.517V30.2727H22.5739V39H21.517V35.0966H16.8636V39H15.8068ZM24.5533 39V32.4545H25.5589V39H24.5533ZM25.0646 31.3636C24.8686 31.3636 24.6996 31.2969 24.5575 31.1634C24.4183 31.0298 24.3487 30.8693 24.3487 30.6818C24.3487 30.4943 24.4183 30.3338 24.5575 30.2003C24.6996 30.0668 24.8686 30 25.0646 30C25.2607 30 25.4283 30.0668 25.5675 30.2003C25.7095 30.3338 25.7805 30.4943 25.7805 30.6818C25.7805 30.8693 25.7095 31.0298 25.5675 31.1634C25.4283 31.2969 25.2607 31.3636 25.0646 31.3636ZM32.0373 33.9205L31.1339 34.1761C31.0771 34.0256 30.9933 33.8793 30.8825 33.7372C30.7745 33.5923 30.6268 33.473 30.4393 33.3793C30.2518 33.2855 30.0117 33.2386 29.7191 33.2386C29.3185 33.2386 28.9847 33.331 28.7177 33.5156C28.4535 33.6974 28.3214 33.929 28.3214 34.2102C28.3214 34.4602 28.4123 34.6577 28.5941 34.8026C28.7759 34.9474 29.06 35.0682 29.4464 35.1648L30.418 35.4034C31.0032 35.5455 31.4393 35.7628 31.7262 36.0554C32.0131 36.3452 32.1566 36.7187 32.1566 37.1761C32.1566 37.5511 32.0487 37.8864 31.8327 38.1818C31.6197 38.4773 31.3214 38.7102 30.9379 38.8807C30.5543 39.0511 30.1083 39.1364 29.5998 39.1364C28.9322 39.1364 28.3796 38.9915 27.9421 38.7017C27.5046 38.4119 27.2276 37.9886 27.1112 37.4318L28.0657 37.1932C28.1566 37.5455 28.3285 37.8097 28.5813 37.9858C28.837 38.1619 29.1708 38.25 29.5827 38.25C30.0515 38.25 30.4237 38.1506 30.6992 37.9517C30.9776 37.75 31.1168 37.5085 31.1168 37.2273C31.1168 37 31.0373 36.8097 30.8782 36.6562C30.7191 36.5 30.4748 36.3835 30.1452 36.3068L29.0543 36.0511C28.4549 35.9091 28.0146 35.6889 27.7333 35.3906C27.4549 35.0895 27.3157 34.7131 27.3157 34.2614C27.3157 33.892 27.4194 33.5653 27.6268 33.2812C27.837 32.9972 28.1225 32.7741 28.4833 32.6122C28.8469 32.4503 29.2589 32.3693 29.7191 32.3693C30.3668 32.3693 30.8754 32.5114 31.2447 32.7955C31.6168 33.0795 31.881 33.4545 32.0373 33.9205ZM36.517 32.4545V33.3068H33.125V32.4545H36.517ZM34.1136 30.8864H35.1193V37.125C35.1193 37.4091 35.1605 37.6222 35.2429 37.7642C35.3281 37.9034 35.4361 37.9972 35.5668 38.0455C35.7003 38.0909 35.8409 38.1136 35.9886 38.1136C36.0994 38.1136 36.1903 38.108 36.2614 38.0966C36.3324 38.0824 36.3892 38.071 36.4318 38.0625L36.6364 38.9659C36.5682 38.9915 36.473 39.017 36.3509 39.0426C36.2287 39.071 36.0739 39.0852 35.8864 39.0852C35.6023 39.0852 35.3239 39.0241 35.0511 38.902C34.7813 38.7798 34.5568 38.5938 34.3778 38.3438C34.2017 38.0938 34.1136 37.7784 34.1136 37.3977V30.8864ZM40.6186 39.1364C40.0277 39.1364 39.5092 38.9957 39.0632 38.7145C38.62 38.4332 38.2734 38.0398 38.0234 37.5341C37.7763 37.0284 37.6527 36.4375 37.6527 35.7614C37.6527 35.0795 37.7763 34.4844 38.0234 33.9759C38.2734 33.4673 38.62 33.0724 39.0632 32.7912C39.5092 32.5099 40.0277 32.3693 40.6186 32.3693C41.2095 32.3693 41.7266 32.5099 42.1697 32.7912C42.6158 33.0724 42.9624 33.4673 43.2095 33.9759C43.4595 34.4844 43.5845 35.0795 43.5845 35.7614C43.5845 36.4375 43.4595 37.0284 43.2095 37.5341C42.9624 38.0398 42.6158 38.4332 42.1697 38.7145C41.7266 38.9957 41.2095 39.1364 40.6186 39.1364ZM40.6186 38.233C41.0675 38.233 41.4368 38.1179 41.7266 37.8878C42.0163 37.6577 42.2308 37.3551 42.37 36.9801C42.5092 36.6051 42.5788 36.1989 42.5788 35.7614C42.5788 35.3239 42.5092 34.9162 42.37 34.5384C42.2308 34.1605 42.0163 33.8551 41.7266 33.6222C41.4368 33.3892 41.0675 33.2727 40.6186 33.2727C40.1697 33.2727 39.8004 33.3892 39.5107 33.6222C39.2209 33.8551 39.0064 34.1605 38.8672 34.5384C38.728 34.9162 38.6584 35.3239 38.6584 35.7614C38.6584 36.1989 38.728 36.6051 38.8672 36.9801C39.0064 37.3551 39.2209 37.6577 39.5107 37.8878C39.8004 38.1179 40.1697 38.233 40.6186 38.233ZM45.1197 39V32.4545H46.0913V33.4432H46.1594C46.2788 33.1193 46.4947 32.8565 46.8072 32.6548C47.1197 32.4531 47.4719 32.3523 47.864 32.3523C47.9379 32.3523 48.0302 32.3537 48.141 32.3565C48.2518 32.3594 48.3356 32.3636 48.3924 32.3693V33.392C48.3583 33.3835 48.2802 33.3707 48.158 33.3537C48.0387 33.3338 47.9123 33.3239 47.7788 33.3239C47.4606 33.3239 47.1765 33.3906 46.9265 33.5241C46.6793 33.6548 46.4833 33.8366 46.3384 34.0696C46.1964 34.2997 46.1254 34.5625 46.1254 34.858V39H45.1197ZM50.4315 41.4545C50.261 41.4545 50.109 41.4403 49.9755 41.4119C49.842 41.3864 49.7496 41.3608 49.6985 41.3352L49.9542 40.4489C50.1985 40.5114 50.4144 40.5341 50.6019 40.517C50.7894 40.5 50.9556 40.4162 51.1005 40.2656C51.2482 40.1179 51.3832 39.8778 51.5053 39.5455L51.6928 39.0341L49.2724 32.4545H50.3633L52.1701 37.6705H52.2383L54.0451 32.4545H55.136L52.3576 39.9545C52.2326 40.2926 52.0778 40.5724 51.8931 40.794C51.7085 41.0185 51.494 41.1847 51.2496 41.2926C51.0082 41.4006 50.7354 41.4545 50.4315 41.4545Z" fill="#868686"/>
</svg>
