<svg width="70" height="43" viewBox="0 0 70 43" fill="none" xmlns="http://www.w3.org/2000/svg">
<path d="M25.204 13.7677C24.6183 13.1819 24.6183 12.2322 25.204 11.6464C25.7898 11.0606 26.7396 11.0606 27.3254 11.6464L35.1035 19.4246C35.6893 20.0103 35.6893 20.9601 35.1035 21.5459C34.5178 22.1317 33.568 22.1317 32.9822 21.5459L25.204 13.7677Z" stroke="#868686" stroke-width="1.5" stroke-linecap="round" stroke-linejoin="round"/>
<path d="M29.8002 14.1213L36.8713 7.05018L39.6997 9.87861L32.6287 16.9497L29.8002 14.1213Z" stroke="#868686" stroke-width="1.5" stroke-linecap="round" stroke-linejoin="round"/>
<path d="M25.5576 18.3639C24.7766 17.5828 24.7766 16.3165 25.5576 15.5355L26.2647 14.8284L31.9216 20.4852L31.2145 21.1923C30.4334 21.9734 29.1671 21.9734 28.386 21.1923L25.5576 18.3639Z" stroke="#868686" stroke-width="1.5" stroke-linecap="round" stroke-linejoin="round"/>
<path d="M36.5178 2.45399C35.932 1.8682 34.9822 1.8682 34.3964 2.45399C33.8107 3.03977 33.8107 3.98952 34.3964 4.57531L42.1746 12.3535C42.7604 12.9393 43.7101 12.9393 44.2959 12.3535C44.8817 11.7677 44.8817 10.8179 44.2959 10.2322L36.5178 2.45399Z" stroke="#868686" stroke-width="1.5" stroke-linecap="round" stroke-linejoin="round"/>
<path d="M41.114 2.80754C40.3329 2.02649 39.0666 2.02649 38.2855 2.80754L37.5784 3.51465L43.2353 9.1715L43.9424 8.4644C44.7234 7.68335 44.7234 6.41702 43.9424 5.63597L41.114 2.80754Z" stroke="#868686" stroke-width="1.5" stroke-linecap="round" stroke-linejoin="round"/>
<path d="M18.8068 39V30.2727H19.8636V34.1591H24.517V30.2727H25.5739V39H24.517V35.0966H19.8636V39H18.8068ZM30.2124 39.1364C29.6214 39.1364 29.103 38.9957 28.657 38.7145C28.2138 38.4332 27.8672 38.0398 27.6172 37.5341C27.37 37.0284 27.2464 36.4375 27.2464 35.7614C27.2464 35.0795 27.37 34.4844 27.6172 33.9759C27.8672 33.4673 28.2138 33.0724 28.657 32.7912C29.103 32.5099 29.6214 32.3693 30.2124 32.3693C30.8033 32.3693 31.3203 32.5099 31.7635 32.7912C32.2095 33.0724 32.5561 33.4673 32.8033 33.9759C33.0533 34.4844 33.1783 35.0795 33.1783 35.7614C33.1783 36.4375 33.0533 37.0284 32.8033 37.5341C32.5561 38.0398 32.2095 38.4332 31.7635 38.7145C31.3203 38.9957 30.8033 39.1364 30.2124 39.1364ZM30.2124 38.233C30.6612 38.233 31.0305 38.1179 31.3203 37.8878C31.6101 37.6577 31.8246 37.3551 31.9638 36.9801C32.103 36.6051 32.1726 36.1989 32.1726 35.7614C32.1726 35.3239 32.103 34.9162 31.9638 34.5384C31.8246 34.1605 31.6101 33.8551 31.3203 33.6222C31.0305 33.3892 30.6612 33.2727 30.2124 33.2727C29.7635 33.2727 29.3942 33.3892 29.1044 33.6222C28.8146 33.8551 28.6001 34.1605 28.4609 34.5384C28.3217 34.9162 28.2521 35.3239 28.2521 35.7614C28.2521 36.1989 28.3217 36.6051 28.4609 36.9801C28.6001 37.3551 28.8146 37.6577 29.1044 37.8878C29.3942 38.1179 29.7635 38.233 30.2124 38.233ZM34.7134 39V32.4545H35.685V33.4773H35.7702C35.9066 33.1278 36.1268 32.8565 36.4308 32.6634C36.7347 32.4673 37.0998 32.3693 37.5259 32.3693C37.9577 32.3693 38.3171 32.4673 38.604 32.6634C38.8938 32.8565 39.1197 33.1278 39.2816 33.4773H39.3498C39.5174 33.1392 39.7688 32.8707 40.104 32.6719C40.4393 32.4702 40.8413 32.3693 41.31 32.3693C41.8952 32.3693 42.3739 32.5526 42.7461 32.919C43.1183 33.2827 43.3043 33.8494 43.3043 34.6193V39H42.2987V34.6193C42.2987 34.1364 42.1665 33.7912 41.9023 33.5838C41.6381 33.3764 41.3271 33.2727 40.9691 33.2727C40.5089 33.2727 40.1523 33.4119 39.8995 33.6903C39.6467 33.9659 39.5202 34.3153 39.5202 34.7386V39H38.4975V34.517C38.4975 34.1449 38.3768 33.8452 38.1353 33.6179C37.8938 33.3878 37.5827 33.2727 37.2021 33.2727C36.9407 33.2727 36.6964 33.3423 36.4691 33.4815C36.2447 33.6207 36.0629 33.8139 35.9237 34.0611C35.7873 34.3054 35.7191 34.5881 35.7191 34.9091V39H34.7134ZM47.8874 39.1364C47.2567 39.1364 46.7127 38.9972 46.2553 38.7188C45.8008 38.4375 45.4499 38.0455 45.2028 37.5426C44.9585 37.0369 44.8363 36.4489 44.8363 35.7784C44.8363 35.108 44.9585 34.517 45.2028 34.0057C45.4499 33.4915 45.7937 33.0909 46.234 32.804C46.6772 32.5142 47.1942 32.3693 47.7852 32.3693C48.1261 32.3693 48.4627 32.4261 48.7951 32.5398C49.1275 32.6534 49.43 32.8381 49.7028 33.0938C49.9755 33.3466 50.1928 33.6818 50.3548 34.0994C50.5167 34.517 50.5977 35.0312 50.5977 35.642V36.0682H45.5522V35.1989H49.5749C49.5749 34.8295 49.5011 34.5 49.3533 34.2102C49.2085 33.9205 49.0011 33.6918 48.7312 33.5241C48.4641 33.3565 48.1488 33.2727 47.7852 33.2727C47.3846 33.2727 47.038 33.3722 46.7454 33.571C46.4556 33.767 46.2326 34.0227 46.0763 34.3381C45.9201 34.6534 45.842 34.9915 45.842 35.3523V35.9318C45.842 36.4261 45.9272 36.8452 46.0977 37.1889C46.271 37.5298 46.511 37.7898 46.8178 37.9688C47.1246 38.1449 47.4812 38.233 47.8874 38.233C48.1516 38.233 48.3903 38.196 48.6033 38.1222C48.8192 38.0455 49.0053 37.9318 49.1616 37.7812C49.3178 37.6278 49.4386 37.4375 49.5238 37.2102L50.4954 37.483C50.3931 37.8125 50.2212 38.1023 49.9798 38.3523C49.7383 38.5994 49.44 38.7926 49.0849 38.9318C48.7298 39.0682 48.3306 39.1364 47.8874 39.1364Z" fill="#868686"/>
</svg>
