<svg width="70" height="43" viewBox="0 0 70 43" fill="none" xmlns="http://www.w3.org/2000/svg">
<path d="M27.75 10H29.75C31.75 10 32.75 9 32.75 7V5C32.75 3 31.75 2 29.75 2H27.75C25.75 2 24.75 3 24.75 5V7C24.75 9 25.75 10 27.75 10Z" stroke="#868686" stroke-width="1.5" stroke-miterlimit="10" stroke-linecap="round" stroke-linejoin="round"/>
<path d="M39.75 10H41.75C43.75 10 44.75 9 44.75 7V5C44.75 3 43.75 2 41.75 2H39.75C37.75 2 36.75 3 36.75 5V7C36.75 9 37.75 10 39.75 10Z" stroke="#868686" stroke-width="1.5" stroke-miterlimit="10" stroke-linecap="round" stroke-linejoin="round"/>
<path d="M39.75 22H41.75C43.75 22 44.75 21 44.75 19V17C44.75 15 43.75 14 41.75 14H39.75C37.75 14 36.75 15 36.75 17V19C36.75 21 37.75 22 39.75 22Z" stroke="#868686" stroke-width="1.5" stroke-miterlimit="10" stroke-linecap="round" stroke-linejoin="round"/>
<path d="M27.75 22H29.75C31.75 22 32.75 21 32.75 19V17C32.75 15 31.75 14 29.75 14H27.75C25.75 14 24.75 15 24.75 17V19C24.75 21 25.75 22 27.75 22Z" stroke="#868686" stroke-width="1.5" stroke-miterlimit="10" stroke-linecap="round" stroke-linejoin="round"/>
<path d="M10.3068 39V30.2727H13.2557C13.9403 30.2727 14.5 30.3963 14.9347 30.6435C15.3722 30.8878 15.696 31.2188 15.9062 31.6364C16.1165 32.054 16.2216 32.5199 16.2216 33.0341C16.2216 33.5483 16.1165 34.0156 15.9062 34.4361C15.6989 34.8565 15.3778 35.1918 14.9432 35.4418C14.5085 35.6889 13.9517 35.8125 13.2727 35.8125H11.1591V34.875H13.2386C13.7074 34.875 14.0838 34.794 14.3679 34.6321C14.652 34.4702 14.858 34.2514 14.9858 33.9759C15.1165 33.6974 15.1818 33.3835 15.1818 33.0341C15.1818 32.6847 15.1165 32.3722 14.9858 32.0966C14.858 31.821 14.6506 31.6051 14.3636 31.4489C14.0767 31.2898 13.696 31.2102 13.2216 31.2102H11.3636V39H10.3068ZM17.7876 39V32.4545H18.7592V33.4432H18.8274C18.9467 33.1193 19.1626 32.8565 19.4751 32.6548C19.7876 32.4531 20.1399 32.3523 20.532 32.3523C20.6058 32.3523 20.6982 32.3537 20.8089 32.3565C20.9197 32.3594 21.0036 32.3636 21.0604 32.3693V33.392C21.0263 33.3835 20.9482 33.3707 20.826 33.3537C20.7067 33.3338 20.5803 33.3239 20.4467 33.3239C20.1286 33.3239 19.8445 33.3906 19.5945 33.5241C19.3473 33.6548 19.1513 33.8366 19.0064 34.0696C18.8643 34.2997 18.7933 34.5625 18.7933 34.858V39H17.7876ZM24.7124 39.1364C24.1214 39.1364 23.603 38.9957 23.157 38.7145C22.7138 38.4332 22.3672 38.0398 22.1172 37.5341C21.87 37.0284 21.7464 36.4375 21.7464 35.7614C21.7464 35.0795 21.87 34.4844 22.1172 33.9759C22.3672 33.4673 22.7138 33.0724 23.157 32.7912C23.603 32.5099 24.1214 32.3693 24.7124 32.3693C25.3033 32.3693 25.8203 32.5099 26.2635 32.7912C26.7095 33.0724 27.0561 33.4673 27.3033 33.9759C27.5533 34.4844 27.6783 35.0795 27.6783 35.7614C27.6783 36.4375 27.5533 37.0284 27.3033 37.5341C27.0561 38.0398 26.7095 38.4332 26.2635 38.7145C25.8203 38.9957 25.3033 39.1364 24.7124 39.1364ZM24.7124 38.233C25.1612 38.233 25.5305 38.1179 25.8203 37.8878C26.1101 37.6577 26.3246 37.3551 26.4638 36.9801C26.603 36.6051 26.6726 36.1989 26.6726 35.7614C26.6726 35.3239 26.603 34.9162 26.4638 34.5384C26.3246 34.1605 26.1101 33.8551 25.8203 33.6222C25.5305 33.3892 25.1612 33.2727 24.7124 33.2727C24.2635 33.2727 23.8942 33.3892 23.6044 33.6222C23.3146 33.8551 23.1001 34.1605 22.9609 34.5384C22.8217 34.9162 22.7521 35.3239 22.7521 35.7614C22.7521 36.1989 22.8217 36.6051 22.9609 36.9801C23.1001 37.3551 23.3146 37.6577 23.6044 37.8878C23.8942 38.1179 24.2635 38.233 24.7124 38.233ZM31.8555 41.5909C31.3697 41.5909 30.9521 41.5284 30.6026 41.4034C30.2532 41.2812 29.962 41.1193 29.729 40.9176C29.4989 40.7188 29.3157 40.5057 29.1793 40.2784L29.9805 39.7159C30.0714 39.8352 30.1864 39.9716 30.3256 40.125C30.4648 40.2812 30.6552 40.4162 30.8967 40.5298C31.141 40.6463 31.4606 40.7045 31.8555 40.7045C32.3839 40.7045 32.82 40.5767 33.1637 40.321C33.5075 40.0653 33.6793 39.6648 33.6793 39.1193V37.7898H33.5941C33.5202 37.9091 33.4151 38.0568 33.2788 38.233C33.1452 38.4062 32.9521 38.5611 32.6992 38.6974C32.4492 38.831 32.1112 38.8977 31.685 38.8977C31.1566 38.8977 30.6822 38.7727 30.2617 38.5227C29.8441 38.2727 29.5131 37.9091 29.2688 37.4318C29.0273 36.9545 28.9066 36.375 28.9066 35.6932C28.9066 35.0227 29.0245 34.4389 29.2603 33.9418C29.4961 33.4418 29.8242 33.0554 30.2447 32.7827C30.6651 32.5071 31.1509 32.3693 31.7021 32.3693C32.1282 32.3693 32.4663 32.4403 32.7163 32.5824C32.9691 32.7216 33.1623 32.8807 33.2958 33.0597C33.4322 33.2358 33.5373 33.3807 33.6112 33.4943H33.7134V32.4545H34.685V39.1875C34.685 39.75 34.5572 40.2074 34.3015 40.5597C34.0487 40.9148 33.7077 41.1747 33.2788 41.3395C32.8526 41.5071 32.3782 41.5909 31.8555 41.5909ZM31.8214 37.9943C32.2248 37.9943 32.5657 37.902 32.8441 37.7173C33.1225 37.5327 33.3342 37.267 33.479 36.9205C33.6239 36.5739 33.6964 36.1591 33.6964 35.6761C33.6964 35.2045 33.6254 34.7884 33.4833 34.4276C33.3413 34.0668 33.131 33.7841 32.8526 33.5795C32.5742 33.375 32.2305 33.2727 31.8214 33.2727C31.3952 33.2727 31.0401 33.3807 30.756 33.5966C30.4748 33.8125 30.2631 34.1023 30.1211 34.4659C29.9819 34.8295 29.9123 35.233 29.9123 35.6761C29.9123 36.1307 29.9833 36.5327 30.1254 36.8821C30.2702 37.2287 30.4833 37.5014 30.7646 37.7003C31.0487 37.8963 31.4009 37.9943 31.8214 37.9943ZM36.5259 39V32.4545H37.4975V33.4432H37.5657C37.685 33.1193 37.9009 32.8565 38.2134 32.6548C38.5259 32.4531 38.8782 32.3523 39.2702 32.3523C39.3441 32.3523 39.4364 32.3537 39.5472 32.3565C39.658 32.3594 39.7418 32.3636 39.7987 32.3693V33.392C39.7646 33.3835 39.6864 33.3707 39.5643 33.3537C39.445 33.3338 39.3185 33.3239 39.185 33.3239C38.8668 33.3239 38.5827 33.3906 38.3327 33.5241C38.0856 33.6548 37.8896 33.8366 37.7447 34.0696C37.6026 34.2997 37.5316 34.5625 37.5316 34.858V39H36.5259ZM43.5359 39.1364C42.9052 39.1364 42.3612 38.9972 41.9038 38.7188C41.4492 38.4375 41.0984 38.0455 40.8512 37.5426C40.6069 37.0369 40.4847 36.4489 40.4847 35.7784C40.4847 35.108 40.6069 34.517 40.8512 34.0057C41.0984 33.4915 41.4421 33.0909 41.8825 32.804C42.3256 32.5142 42.8427 32.3693 43.4336 32.3693C43.7745 32.3693 44.1112 32.4261 44.4435 32.5398C44.7759 32.6534 45.0785 32.8381 45.3512 33.0938C45.6239 33.3466 45.8413 33.6818 46.0032 34.0994C46.1651 34.517 46.2461 35.0312 46.2461 35.642V36.0682H41.2006V35.1989H45.2234C45.2234 34.8295 45.1495 34.5 45.0018 34.2102C44.8569 33.9205 44.6495 33.6918 44.3796 33.5241C44.1126 33.3565 43.7972 33.2727 43.4336 33.2727C43.033 33.2727 42.6864 33.3722 42.3938 33.571C42.104 33.767 41.881 34.0227 41.7248 34.3381C41.5685 34.6534 41.4904 34.9915 41.4904 35.3523V35.9318C41.4904 36.4261 41.5756 36.8452 41.7461 37.1889C41.9194 37.5298 42.1594 37.7898 42.4663 37.9688C42.7731 38.1449 43.1296 38.233 43.5359 38.233C43.8001 38.233 44.0387 38.196 44.2518 38.1222C44.4677 38.0455 44.6538 37.9318 44.81 37.7812C44.9663 37.6278 45.087 37.4375 45.1722 37.2102L46.1438 37.483C46.0415 37.8125 45.8697 38.1023 45.6282 38.3523C45.3867 38.5994 45.0884 38.7926 44.7333 38.9318C44.3782 39.0682 43.979 39.1364 43.5359 39.1364ZM52.4123 33.9205L51.5089 34.1761C51.4521 34.0256 51.3683 33.8793 51.2575 33.7372C51.1495 33.5923 51.0018 33.473 50.8143 33.3793C50.6268 33.2855 50.3867 33.2386 50.0941 33.2386C49.6935 33.2386 49.3597 33.331 49.0927 33.5156C48.8285 33.6974 48.6964 33.929 48.6964 34.2102C48.6964 34.4602 48.7873 34.6577 48.9691 34.8026C49.1509 34.9474 49.435 35.0682 49.8214 35.1648L50.793 35.4034C51.3782 35.5455 51.8143 35.7628 52.1012 36.0554C52.3881 36.3452 52.5316 36.7187 52.5316 37.1761C52.5316 37.5511 52.4237 37.8864 52.2077 38.1818C51.9947 38.4773 51.6964 38.7102 51.3129 38.8807C50.9293 39.0511 50.4833 39.1364 49.9748 39.1364C49.3072 39.1364 48.7546 38.9915 48.3171 38.7017C47.8796 38.4119 47.6026 37.9886 47.4862 37.4318L48.4407 37.1932C48.5316 37.5455 48.7035 37.8097 48.9563 37.9858C49.212 38.1619 49.5458 38.25 49.9577 38.25C50.4265 38.25 50.7987 38.1506 51.0742 37.9517C51.3526 37.75 51.4918 37.5085 51.4918 37.2273C51.4918 37 51.4123 36.8097 51.2532 36.6562C51.0941 36.5 50.8498 36.3835 50.5202 36.3068L49.4293 36.0511C48.8299 35.9091 48.3896 35.6889 48.1083 35.3906C47.8299 35.0895 47.6907 34.7131 47.6907 34.2614C47.6907 33.892 47.7944 33.5653 48.0018 33.2812C48.212 32.9972 48.4975 32.7741 48.8583 32.6122C49.2219 32.4503 49.6339 32.3693 50.0941 32.3693C50.7418 32.3693 51.2504 32.5114 51.6197 32.7955C51.9918 33.0795 52.256 33.4545 52.4123 33.9205ZM58.6818 33.9205L57.7784 34.1761C57.7216 34.0256 57.6378 33.8793 57.527 33.7372C57.419 33.5923 57.2713 33.473 57.0838 33.3793C56.8963 33.2855 56.6562 33.2386 56.3636 33.2386C55.9631 33.2386 55.6293 33.331 55.3622 33.5156C55.098 33.6974 54.9659 33.929 54.9659 34.2102C54.9659 34.4602 55.0568 34.6577 55.2386 34.8026C55.4205 34.9474 55.7045 35.0682 56.0909 35.1648L57.0625 35.4034C57.6477 35.5455 58.0838 35.7628 58.3707 36.0554C58.6577 36.3452 58.8011 36.7187 58.8011 37.1761C58.8011 37.5511 58.6932 37.8864 58.4773 38.1818C58.2642 38.4773 57.9659 38.7102 57.5824 38.8807C57.1989 39.0511 56.7528 39.1364 56.2443 39.1364C55.5767 39.1364 55.0241 38.9915 54.5866 38.7017C54.1491 38.4119 53.8722 37.9886 53.7557 37.4318L54.7102 37.1932C54.8011 37.5455 54.973 37.8097 55.2259 37.9858C55.4815 38.1619 55.8153 38.25 56.2273 38.25C56.696 38.25 57.0682 38.1506 57.3438 37.9517C57.6222 37.75 57.7614 37.5085 57.7614 37.2273C57.7614 37 57.6818 36.8097 57.5227 36.6562C57.3636 36.5 57.1193 36.3835 56.7898 36.3068L55.6989 36.0511C55.0994 35.9091 54.6591 35.6889 54.3778 35.3906C54.0994 35.0895 53.9602 34.7131 53.9602 34.2614C53.9602 33.892 54.0639 33.5653 54.2713 33.2812C54.4815 32.9972 54.767 32.7741 55.1278 32.6122C55.4915 32.4503 55.9034 32.3693 56.3636 32.3693C57.0114 32.3693 57.5199 32.5114 57.8892 32.7955C58.2614 33.0795 58.5256 33.4545 58.6818 33.9205Z" fill="#868686"/>
</svg>
