<svg width="70" height="43" viewBox="0 0 70 43" fill="none" xmlns="http://www.w3.org/2000/svg">
<path d="M35.25 15C36.9069 15 38.25 13.6569 38.25 12C38.25 10.3431 36.9069 9 35.25 9C33.5931 9 32.25 10.3431 32.25 12C32.25 13.6569 33.5931 15 35.25 15Z" stroke="#868686" stroke-width="1.5" stroke-miterlimit="10" stroke-linecap="round" stroke-linejoin="round"/>
<path d="M25.25 12.8799V11.1199C25.25 10.0799 26.1 9.21994 27.15 9.21994C28.96 9.21994 29.7 7.93994 28.79 6.36994C28.27 5.46994 28.58 4.29994 29.49 3.77994L31.22 2.78994C32.01 2.31994 33.03 2.59994 33.5 3.38994L33.61 3.57994C34.51 5.14994 35.99 5.14994 36.9 3.57994L37.01 3.38994C37.48 2.59994 38.5 2.31994 39.29 2.78994L41.02 3.77994C41.93 4.29994 42.24 5.46994 41.72 6.36994C40.81 7.93994 41.55 9.21994 43.36 9.21994C44.4 9.21994 45.26 10.0699 45.26 11.1199V12.8799C45.26 13.9199 44.41 14.7799 43.36 14.7799C41.55 14.7799 40.81 16.0599 41.72 17.6299C42.24 18.5399 41.93 19.6999 41.02 20.2199L39.29 21.2099C38.5 21.6799 37.48 21.3999 37.01 20.6099L36.9 20.4199C36 18.8499 34.52 18.8499 33.61 20.4199L33.5 20.6099C33.03 21.3999 32.01 21.6799 31.22 21.2099L29.49 20.2199C28.58 19.6999 28.27 18.5299 28.79 17.6299C29.7 16.0599 28.96 14.7799 27.15 14.7799C26.1 14.7799 25.25 13.9199 25.25 12.8799Z" stroke="#868686" stroke-width="1.5" stroke-miterlimit="10" stroke-linecap="round" stroke-linejoin="round"/>
<path d="M17.5795 32.4545C17.5284 32.0227 17.321 31.6875 16.9574 31.4489C16.5938 31.2102 16.1477 31.0909 15.6193 31.0909C15.233 31.0909 14.8949 31.1534 14.6051 31.2784C14.3182 31.4034 14.0938 31.5753 13.9318 31.794C13.7727 32.0128 13.6932 32.2614 13.6932 32.5398C13.6932 32.7727 13.7486 32.973 13.8594 33.1406C13.973 33.3054 14.1179 33.4432 14.294 33.554C14.4702 33.6619 14.6548 33.7514 14.848 33.8224C15.0412 33.8906 15.2188 33.946 15.3807 33.9886L16.267 34.2273C16.4943 34.2869 16.7472 34.3693 17.0256 34.4744C17.3068 34.5795 17.5753 34.723 17.831 34.9048C18.0895 35.0838 18.3026 35.3139 18.4702 35.5952C18.6378 35.8764 18.7216 36.2216 18.7216 36.6307C18.7216 37.1023 18.598 37.5284 18.3509 37.9091C18.1065 38.2898 17.7486 38.5923 17.277 38.8168C16.8082 39.0412 16.2386 39.1534 15.5682 39.1534C14.9432 39.1534 14.402 39.0526 13.9446 38.8509C13.4901 38.6491 13.1321 38.3679 12.8707 38.0071C12.6122 37.6463 12.4659 37.2273 12.4318 36.75H13.5227C13.5511 37.0795 13.6619 37.3523 13.8551 37.5682C14.0511 37.7812 14.2983 37.9403 14.5966 38.0455C14.8977 38.1477 15.2216 38.1989 15.5682 38.1989C15.9716 38.1989 16.3338 38.1335 16.6548 38.0028C16.9759 37.8693 17.2301 37.6847 17.4176 37.4489C17.6051 37.2102 17.6989 36.9318 17.6989 36.6136C17.6989 36.3239 17.6179 36.0881 17.456 35.9062C17.294 35.7244 17.081 35.5767 16.8168 35.4631C16.5526 35.3494 16.267 35.25 15.9602 35.1648L14.8864 34.858C14.2045 34.6619 13.6648 34.3821 13.267 34.0185C12.8693 33.6548 12.6705 33.179 12.6705 32.5909C12.6705 32.1023 12.8026 31.6761 13.0668 31.3125C13.3338 30.946 13.6918 30.6619 14.1406 30.4602C14.5923 30.2557 15.0966 30.1534 15.6534 30.1534C16.2159 30.1534 16.7159 30.2543 17.1534 30.456C17.5909 30.6548 17.9375 30.9276 18.1932 31.2741C18.4517 31.6207 18.5881 32.0142 18.6023 32.4545H17.5795ZM23.0671 39.1364C22.4364 39.1364 21.8924 38.9972 21.435 38.7188C20.9805 38.4375 20.6296 38.0455 20.3825 37.5426C20.1381 37.0369 20.016 36.4489 20.016 35.7784C20.016 35.108 20.1381 34.517 20.3825 34.0057C20.6296 33.4915 20.9734 33.0909 21.4137 32.804C21.8569 32.5142 22.3739 32.3693 22.9648 32.3693C23.3058 32.3693 23.6424 32.4261 23.9748 32.5398C24.3072 32.6534 24.6097 32.8381 24.8825 33.0938C25.1552 33.3466 25.3725 33.6818 25.5344 34.0994C25.6964 34.517 25.7773 35.0312 25.7773 35.642V36.0682H20.7319V35.1989H24.7546C24.7546 34.8295 24.6808 34.5 24.533 34.2102C24.3881 33.9205 24.1808 33.6918 23.9109 33.5241C23.6438 33.3565 23.3285 33.2727 22.9648 33.2727C22.5643 33.2727 22.2177 33.3722 21.9251 33.571C21.6353 33.767 21.4123 34.0227 21.256 34.3381C21.0998 34.6534 21.0217 34.9915 21.0217 35.3523V35.9318C21.0217 36.4261 21.1069 36.8452 21.2773 37.1889C21.4506 37.5298 21.6907 37.7898 21.9975 37.9688C22.3043 38.1449 22.6609 38.233 23.0671 38.233C23.3313 38.233 23.57 38.196 23.783 38.1222C23.9989 38.0455 24.185 37.9318 24.3413 37.7812C24.4975 37.6278 24.6183 37.4375 24.7035 37.2102L25.6751 37.483C25.5728 37.8125 25.4009 38.1023 25.1594 38.3523C24.918 38.5994 24.6197 38.7926 24.2646 38.9318C23.9094 39.0682 23.5103 39.1364 23.0671 39.1364ZM30.1538 32.4545V33.3068H26.7617V32.4545H30.1538ZM27.7504 30.8864H28.756V37.125C28.756 37.4091 28.7972 37.6222 28.8796 37.7642C28.9648 37.9034 29.0728 37.9972 29.2035 38.0455C29.337 38.0909 29.4776 38.1136 29.6254 38.1136C29.7362 38.1136 29.8271 38.108 29.8981 38.0966C29.9691 38.0824 30.0259 38.071 30.0685 38.0625L30.2731 38.9659C30.2049 38.9915 30.1097 39.017 29.9876 39.0426C29.8654 39.071 29.7106 39.0852 29.5231 39.0852C29.239 39.0852 28.9606 39.0241 28.6879 38.902C28.418 38.7798 28.1935 38.5938 28.0146 38.3438C27.8384 38.0938 27.7504 37.7784 27.7504 37.3977V30.8864ZM34.5131 32.4545V33.3068H31.1211V32.4545H34.5131ZM32.1097 30.8864H33.1154V37.125C33.1154 37.4091 33.1566 37.6222 33.239 37.7642C33.3242 37.9034 33.4322 37.9972 33.5629 38.0455C33.6964 38.0909 33.837 38.1136 33.9847 38.1136C34.0955 38.1136 34.1864 38.108 34.2575 38.0966C34.3285 38.0824 34.3853 38.071 34.4279 38.0625L34.6325 38.9659C34.5643 38.9915 34.4691 39.017 34.3469 39.0426C34.2248 39.071 34.07 39.0852 33.8825 39.0852C33.5984 39.0852 33.32 39.0241 33.0472 38.902C32.7773 38.7798 32.5529 38.5938 32.3739 38.3438C32.1978 38.0938 32.1097 37.7784 32.1097 37.3977V30.8864ZM36.0259 39V32.4545H37.0316V39H36.0259ZM36.5373 31.3636C36.3413 31.3636 36.1722 31.2969 36.0302 31.1634C35.891 31.0298 35.8214 30.8693 35.8214 30.6818C35.8214 30.4943 35.891 30.3338 36.0302 30.2003C36.1722 30.0668 36.3413 30 36.5373 30C36.7333 30 36.9009 30.0668 37.0401 30.2003C37.1822 30.3338 37.2532 30.4943 37.2532 30.6818C37.2532 30.8693 37.1822 31.0298 37.0401 31.1634C36.9009 31.2969 36.7333 31.3636 36.5373 31.3636ZM39.8793 35.0625V39H38.8736V32.4545H39.8452V33.4773H39.9304C40.0838 33.1449 40.3168 32.8778 40.6293 32.6761C40.9418 32.4716 41.3452 32.3693 41.8395 32.3693C42.2827 32.3693 42.6705 32.4602 43.0028 32.642C43.3352 32.821 43.5938 33.0938 43.7784 33.4602C43.9631 33.8239 44.0554 34.2841 44.0554 34.8409V39H43.0497V34.9091C43.0497 34.3949 42.9162 33.9943 42.6491 33.7074C42.3821 33.4176 42.0156 33.2727 41.5497 33.2727C41.2287 33.2727 40.9418 33.3423 40.6889 33.4815C40.4389 33.6207 40.2415 33.8239 40.0966 34.0909C39.9517 34.358 39.8793 34.6818 39.8793 35.0625ZM48.5352 41.5909C48.0494 41.5909 47.6317 41.5284 47.2823 41.4034C46.9329 41.2812 46.6417 41.1193 46.4087 40.9176C46.1786 40.7188 45.9954 40.5057 45.859 40.2784L46.6602 39.7159C46.7511 39.8352 46.8661 39.9716 47.0053 40.125C47.1445 40.2812 47.3349 40.4162 47.5763 40.5298C47.8207 40.6463 48.1403 40.7045 48.5352 40.7045C49.0636 40.7045 49.4996 40.5767 49.8434 40.321C50.1871 40.0653 50.359 39.6648 50.359 39.1193V37.7898H50.2738C50.1999 37.9091 50.0948 38.0568 49.9585 38.233C49.8249 38.4062 49.6317 38.5611 49.3789 38.6974C49.1289 38.831 48.7908 38.8977 48.3647 38.8977C47.8363 38.8977 47.3619 38.7727 46.9414 38.5227C46.5238 38.2727 46.1928 37.9091 45.9485 37.4318C45.707 36.9545 45.5863 36.375 45.5863 35.6932C45.5863 35.0227 45.7042 34.4389 45.94 33.9418C46.1758 33.4418 46.5039 33.0554 46.9244 32.7827C47.3448 32.5071 47.8306 32.3693 48.3817 32.3693C48.8079 32.3693 49.146 32.4403 49.396 32.5824C49.6488 32.7216 49.842 32.8807 49.9755 33.0597C50.1119 33.2358 50.217 33.3807 50.2908 33.4943H50.3931V32.4545H51.3647V39.1875C51.3647 39.75 51.2369 40.2074 50.9812 40.5597C50.7283 40.9148 50.3874 41.1747 49.9585 41.3395C49.5323 41.5071 49.0579 41.5909 48.5352 41.5909ZM48.5011 37.9943C48.9045 37.9943 49.2454 37.902 49.5238 37.7173C49.8022 37.5327 50.0138 37.267 50.1587 36.9205C50.3036 36.5739 50.3761 36.1591 50.3761 35.6761C50.3761 35.2045 50.305 34.7884 50.163 34.4276C50.021 34.0668 49.8107 33.7841 49.5323 33.5795C49.2539 33.375 48.9102 33.2727 48.5011 33.2727C48.0749 33.2727 47.7198 33.3807 47.4357 33.5966C47.1545 33.8125 46.9428 34.1023 46.8008 34.4659C46.6616 34.8295 46.592 35.233 46.592 35.6761C46.592 36.1307 46.663 36.5327 46.805 36.8821C46.9499 37.2287 47.163 37.5014 47.4442 37.7003C47.7283 37.8963 48.0806 37.9943 48.5011 37.9943ZM57.842 33.9205L56.9386 34.1761C56.8817 34.0256 56.7979 33.8793 56.6871 33.7372C56.5792 33.5923 56.4315 33.473 56.244 33.3793C56.0565 33.2855 55.8164 33.2386 55.5238 33.2386C55.1232 33.2386 54.7894 33.331 54.5224 33.5156C54.2582 33.6974 54.1261 33.929 54.1261 34.2102C54.1261 34.4602 54.217 34.6577 54.3988 34.8026C54.5806 34.9474 54.8647 35.0682 55.2511 35.1648L56.2227 35.4034C56.8079 35.5455 57.244 35.7628 57.5309 36.0554C57.8178 36.3452 57.9613 36.7187 57.9613 37.1761C57.9613 37.5511 57.8533 37.8864 57.6374 38.1818C57.4244 38.4773 57.1261 38.7102 56.7425 38.8807C56.359 39.0511 55.913 39.1364 55.4045 39.1364C54.7369 39.1364 54.1843 38.9915 53.7468 38.7017C53.3093 38.4119 53.0323 37.9886 52.9158 37.4318L53.8704 37.1932C53.9613 37.5455 54.1332 37.8097 54.386 37.9858C54.6417 38.1619 54.9755 38.25 55.3874 38.25C55.8562 38.25 56.2283 38.1506 56.5039 37.9517C56.7823 37.75 56.9215 37.5085 56.9215 37.2273C56.9215 37 56.842 36.8097 56.6829 36.6562C56.5238 36.5 56.2795 36.3835 55.9499 36.3068L54.859 36.0511C54.2596 35.9091 53.8192 35.6889 53.538 35.3906C53.2596 35.0895 53.1204 34.7131 53.1204 34.2614C53.1204 33.892 53.2241 33.5653 53.4315 33.2812C53.6417 32.9972 53.9272 32.7741 54.288 32.6122C54.6516 32.4503 55.0636 32.3693 55.5238 32.3693C56.1715 32.3693 56.68 32.5114 57.0494 32.7955C57.4215 33.0795 57.6857 33.4545 57.842 33.9205Z" fill="#868686"/>
</svg>
